<svg width="108" height="12" viewBox="0 0 108 12" fill="none" xmlns="http://www.w3.org/2000/svg">
<path d="M105.585 10.7499H105.169V10.4827H106.317V10.7499H105.901V11.8095H105.585V10.7499ZM106.61 10.4827H106.946L107.31 11.0417L107.674 10.4827H108V11.8065H107.703V10.9127L107.32 11.4932H107.294L106.91 10.9127V11.8065H106.613V10.4827H106.61Z" fill="#10069F"/>
<path d="M94.1643 0.199646H96.3053V6.03533L102.099 0.199646H104.727L99.6618 5.18761L104.953 11.8004H102.361L98.2012 6.57897L96.3053 8.4341V11.8004H94.1643V0.199646Z" fill="#A7A9AC"/>
<path d="M80.0254 0.245728H82.0019L88.5022 8.23752V0.245728H90.6013V11.8034H88.815L82.1244 3.58127V11.8034H80.0286V0.245728H80.0254Z" fill="#A7A9AC"/>
<path d="M69.0852 11.8034L69.1883 11.5761L70.2846 9.07601H70.2814L72.3611 4.45354L74.457 9.07601H74.4537L75.6468 11.8034H77.8684L73.3833 2.02712L72.3901 0L66.9313 11.8034H69.0852Z" fill="#A7A9AC"/>
<path d="M55.3623 0.245728H60.805C62.1915 0.245728 63.2846 0.608158 63.9778 1.26851C64.5163 1.78143 64.7936 2.40799 64.7936 3.18506V3.21884C64.7936 4.60711 63.9617 5.34732 63.0589 5.79574C64.4808 6.25952 65.4675 7.0335 65.4675 8.60299V8.63679C65.4675 10.7008 63.6812 11.8065 60.9792 11.8065H55.3623V0.245728ZM62.659 3.5137C62.659 2.60456 61.8949 2.04556 60.5277 2.04556H57.4614V5.11696H60.373C61.7433 5.11696 62.6623 4.60404 62.6623 3.54748V3.5137H62.659ZM60.8373 6.83388H57.4581V10.0036H60.9953C62.4527 10.0036 63.3362 9.45991 63.3362 8.41871V8.38493C63.3329 7.4113 62.5204 6.83388 60.8373 6.83388Z" fill="#A7A9AC"/>
<path d="M42.4004 0.199646H44.5413V6.03533L50.3355 0.199646H52.9633L47.8979 5.18761L53.189 11.8004H50.5967L46.4373 6.57897L44.5413 8.4341V11.8004H42.4004V0.199646Z" fill="#10069F"/>
<path d="M29.0095 6.05683V6.02305C29.0095 2.73664 31.5922 0.0460815 35.268 0.0460815C37.5025 0.0460815 38.8567 0.789358 40.0175 1.84592L38.6471 3.34784C37.6766 2.48785 36.6384 1.91043 35.2487 1.91043C32.9432 1.91043 31.244 3.72564 31.244 5.98927V6.02305C31.244 8.2836 32.9239 10.1172 35.2487 10.1172C36.7383 10.1172 37.6927 9.55516 38.731 8.63067L40.1013 9.95137C38.8374 11.2076 37.4509 12 35.1777 12C31.6471 12.0031 29.0095 9.37702 29.0095 6.05683Z" fill="#10069F"/>
<path d="M24.1763 0.245728H26.3076V11.8034H24.1763V0.245728Z" fill="#10069F"/>
<path d="M13.3264 0.245728H15.4577V9.95443H21.8355V11.8034H13.3264V0.245728Z" fill="#10069F"/>
<path d="M0 6.05664V6.02286C0 2.73646 2.58271 0.0458984 6.25848 0.0458984C8.49296 0.0458984 9.84719 0.789174 11.008 1.84574L9.6376 3.34766C8.66707 2.48766 7.62883 1.91024 6.23913 1.91024C3.93371 1.91024 2.23448 3.72545 2.23448 5.98908V6.02286C2.23448 8.28341 3.91437 10.117 6.23913 10.117C7.72879 10.117 8.68319 9.55497 9.72144 8.63048L11.0918 9.95118C9.82784 11.2074 8.44136 11.9998 6.16819 11.9998C2.63429 12.0029 0 9.37683 0 6.05664Z" fill="#10069F"/>
</svg>
