<svg xmlns="http://www.w3.org/2000/svg" version="1.1" xmlns:xlink="http://www.w3.org/1999/xlink" width="512" height="512" x="0" y="0" viewBox="0 0 512 512" style="enable-background:new 0 0 512 512" xml:space="preserve"><g><path d="M141.3 73.6c0-2.9 2.4-5.3 5.3-5.3H282c2.9 0 5.3 2.4 5.3 5.3s-2.4 5.3-5.3 5.3H146.7c-3 0-5.4-2.4-5.4-5.3zm137.1 32c0-2.9-2.4-5.3-5.3-5.3h-84.3c-2.9 0-5.3 2.4-5.3 5.3s2.4 5.3 5.3 5.3h84.3c2.9 0 5.3-2.4 5.3-5.3zm-62.6-57.9h98.1c6.9 0 7-10.6 0-10.6h-98.1c-6.9 0-7 10.6 0 10.6zm87.6 113.2 56.6 35.5 10-72.7-56.6-35.1zM127.3 373.8c0-2.9-2.4-5.3-5.3-5.3H49c-2.9 0-5.3 2.4-5.3 5.3s2.4 5.3 5.3 5.3h73c3 0 5.3-2.4 5.3-5.3zM84.6 250.9c7.7.9 8.9-10.2 1.1-10.7H7.5c-3.3-.4-6.5 1.9-6.5 5.3 0 3.5 3.2 5.7 6.5 5.3 0 .1 77.1.1 77.1.1zm57.1-77.4H277c6.9 0 7-10.6 0-10.6H141.7c-7 0-7 10.6 0 10.6zm89.2-42.5c-7 0-7 10.6 0 10.6h36.2c7 0 7-10.6 0-10.6zm193.4 305.2c-8-.3-15.9 14.7-4.8 16 7.6.2 15.7-14.2 4.8-16zm3.4-315.1c-.2 1.8-1.3 3.2-2.8 4l-21.2 11.1c-3.6 2-8.4-1.4-7.7-5.5l2.1-15.3-17.4 9.1-9.9 71.9 67.6-36.2 9.8-71-17.3 9.1zm-34-15.6-56.4-35-17.6 9.4 56.3 34.9zm58.2 224.8-5.7 31.3h61.4c-.2-.3-.4-.5-.7-.7L475 329.6h-22.3c-.2-.1-.6.3-.8.7zm-36.5-236-56.7-35.2-10.5 5.6 56.5 35.1zm-5.8 15-1.8 12.7 9.6-5.1 1.8-12.7zm34.7-30.2-56.7-35.6-18.1 9.7 56.8 35.3zm-47.5 222.3h68.4c-.8-5.4-5.2-8.9-10.8-8.8h-56zm94.3 107.2c.7 1.8 10.7.7 12.8 1l1.6-8.7h-14.2c-.2 1.9-1.8 6.2-.2 7.7zm-369-5 .5-2.7h-14.1l-1.6 8.7h8.2c3.1 0 6.4-2.8 7-6zm92.6-94.9-6.1 33.6h11.9l10.9-11.9 2.1-11.4-5.8-10.3zm148.9 115.7H208.4c-13.7-31.6-55.9-25.2-72.9 0h-31.3l.7-4.2h10.2c8.3 0 16-6.4 17.5-14.7l1.7-9c.6-3.1-2-6.4-5.3-6.3h-18.6l.3-1.5H122c19.7-.5 19.6-29.3 0-29.8h-5.9l13.5-74.1h39.2c19.7-.5 19.7-29.3 0-29.8H135l.9-4.7c.9-4.8 5.7-8.9 10.5-8.9H390c4.1 0 6.5 3.1 5.7 7.1-.1.2-6.9 37.7-7 37.9-6.6 36.5-18.6 101.7-25.1 138zm-176.2-121c0-2.9-2.4-5.3-5.3-5.3h-32.6c-2.6 0-4.8 1.9-5.2 4.4l-10.8 58.9c-1.2 6.8 9.2 8.8 10.4 1.9l4.6-25.1h28.1c2.9 0 5.3-2.4 5.3-5.3s-2.4-5.3-5.3-5.3h-26.2l3.4-18.9H182c3 0 5.4-2.3 5.4-5.3zm57.4 12.1-8.2-14.7c-.9-1.7-2.7-2.8-4.6-2.8h-22.8c-2.6 0-4.8 1.9-5.3 4.4l-10.8 58.9c-.6 3.2 2 6.3 5.3 6.3 2.9.3 5.9-1.2 6.3-4.4l1.9-10.4h13l6.7 12c1 1.9 3.2 3.1 5.2 2.7 4.1.8 7.4-4.3 5.2-7.8l-6.3-11.4c1.3-1.8 12.4-12.3 12.2-14.5.6-4.9 4-16.1 2.2-18.3zm63.7-12.1c0-2.9-2.4-5.3-5.3-5.3h-33.7c-2.6 0-4.8 1.9-5.3 4.4l-10.8 58.9c-.6 3.1 2 6.4 5.3 6.3h33.7c2.9 0 5.3-2.4 5.3-5.3 0-3-2.4-5.3-5.3-5.3h-26.2l3.5-18.9h28.1c2.9 0 5.3-2.4 5.3-5.3s-2.4-5.3-5.3-5.3h-26.2l3.5-18.9h28.1c2.9 0 5.3-2.3 5.3-5.3zm23.4 24.2 3.5-18.9h28.1c7-.1 7-10.5 0-10.6h-33.7c-2.6 0-4.8 1.9-5.2 4.4l-10.8 58.9c-.7 3.1 2 6.4 5.2 6.3h33.7c7-.1 7-10.6 0-10.6h-26.2l3.5-18.9h28.1c2.9 0 5.3-2.4 5.3-5.3s-2.4-5.3-5.3-5.3zM452.4 434c2.6 21.1-17.6 41.1-37.7 40.9-14.4.2-25.4-10.6-24.8-25.1.4-19.3 19.6-36.7 37.9-36.4 12.3-.1 23.2 8.4 24.6 20.6zm-11.6 3.5c-6.3-21.4-38.7-11.6-38.5 8.7 1.4 28.8 44.2 17.1 38.5-8.7zm-230.1-1.7c.2 2.9 0 5.8-.5 8.7h169.4c.5-3.3 1.4-6.3 2.6-9.4H210.7c.1.2 0 .4 0 .7zm252.5-.7c.1 3.2-.1 6.3-.5 9.4h46.5l1.8-9.4zm38.7-14.8c-6.2.1-15 .8-19.1-4.8-5.1-5.2-2.4-14.4-1.3-20.8.5-2.6 2.7-4.4 5.3-4.4h20.6l3-16.9c.1-.4.2-.8.2-1.2h-65.1c-3 0-5.9-1.3-7.8-3.5-1.9-2.3-2.7-5.4-2.1-8.4l5.8-31.9c1-5.3 5.9-9.5 11.3-9.5h11.4l-7-6.8h-62.4l-1.9 10.3-18.6 102H388c16.1-24.6 59.9-31.1 72.8 0h40.4zm-302 13.7c2.7 21-17.7 41.1-37.7 40.9-14.4.2-25.4-10.6-24.8-25.1 0-32.7 54.1-54.5 62.5-15.8zm-12.7 3.5c-6.4-21.4-37.4-11.3-37.4 8.7 1.6 28.9 43.1 16.4 37.4-8.7zM87 305.4c6.9 0 7-10.6 0-10.6H13.4c-7.7-.9-8.9 10.2-1.1 10.7H87zm14.6 22.2H53.9c-7.7-.9-8.9 10.2-1.1 10.7H101.6c7-.1 7-10.7 0-10.7zm72.5-57.7c0-2.9-2.4-5.3-5.3-5.3H58.6c-2.9 0-5.3 2.4-5.3 5.3s2.4 5.3 5.3 5.3h110.2c3 0 5.3-2.3 5.3-5.3zm-2.9 166.2c-5.2-.1-10.6 4.9-10.8 10.3.5 10.3 14.5 5.3 16.3-2.2 1.5-3.8-.9-8.3-5.5-8.1zm-80.9 8.4h37c.5-3.2 1.4-6.4 2.6-9.4H92zM70.5 400H22.7c-7.7-.9-8.9 10.2-1.1 10.7H70.4c7-.1 7-10.7.1-10.7z" fill="#ffffff" opacity="1" data-original="#000000"></path></g></svg>